<?xml version="1.0" encoding="UTF-8"?>
<!--
This file has been modified from the original version by the kanji_colorize.py
script (available at http://github.com/cayennes/kanji-colorize) with these
settings:
    mode: spectrum
    saturation: 0.95
    value: 0.75
    image_size: 327
It remains under a Creative Commons-Attribution-Share Alike 3.0 License.

The original SVG has the following copyright:

Copyright (C) 2009/2010/2011 Ulrich Apel.
This work is distributed under the conditions of the Creative Commons
Attribution-Share Alike 3.0 Licence. This means you are free:
* to Share - to copy, distribute and transmit the work
* to Remix - to adapt the work

Under the following conditions:
* Attribution. You must attribute the work by stating your use of KanjiVG in
  your own copyright header and linking to KanjiVG's website
  (http://kanjivg.tagaini.net)
* Share Alike. If you alter, transform, or build upon this work, you may
  distribute the resulting work only under the same or similar license to this
  one.

See http://creativecommons.org/licenses/by-sa/3.0/ for more details.
-->
<!DOCTYPE svg PUBLIC "-//W3C//DTD SVG 1.0//EN" "http://www.w3.org/TR/2001/REC-SVG-20010904/DTD/svg10.dtd" [
<!ATTLIST g
xmlns:kvg CDATA #FIXED "http://kanjivg.tagaini.net"
kvg:element CDATA #IMPLIED
kvg:variant CDATA #IMPLIED
kvg:partial CDATA #IMPLIED
kvg:original CDATA #IMPLIED
kvg:part CDATA #IMPLIED
kvg:number CDATA #IMPLIED
kvg:tradForm CDATA #IMPLIED
kvg:radicalForm CDATA #IMPLIED
kvg:position CDATA #IMPLIED
kvg:radical CDATA #IMPLIED
kvg:phon CDATA #IMPLIED >
<!ATTLIST path
xmlns:kvg CDATA #FIXED "http://kanjivg.tagaini.net"
kvg:type CDATA #IMPLIED >
]>
<svg xmlns="http://www.w3.org/2000/svg" width="327" height = "327" viewBox="0 0 327 327">
<g id="kvg:StrokePaths_06adb-Jinmei" style="fill:none;stroke:#000000;stroke-width:3;stroke-linecap:round;stroke-linejoin:round;" transform="scale(3.0,3.0)">
<g id="kvg:06adb-Jinmei" kvg:element="櫛">
	<g id="kvg:06adb-Jinmei-g1" kvg:element="木" kvg:position="left" kvg:radical="general">
		<path style="stroke: #bf0909;" id="kvg:06adb-Jinmei-s1" kvg:type="㇐" d="M11.78,39.22c0.35,0.24,2.39,0.41,3.31,0.31c3.94-0.41,15.62-1.71,21.95-2.91c0.92-0.17,1.15-0.24,1.73,0"/>
		<path style="stroke: #bf4209;" id="kvg:06adb-Jinmei-s2" kvg:type="㇑" d="M26.36,13.5c0.91,0.47,2.54,3,2.54,5.42c0,0.95-0.12,69.75-0.3,75.58"/>
		<path style="stroke: #bf7c09;" id="kvg:06adb-Jinmei-s3" kvg:type="㇒" d="M28.44,41.28c-5.26,15.15-8.19,21.55-16.33,34.81"/>
		<path style="stroke: #bfb509;" id="kvg:06adb-Jinmei-s4" kvg:type="㇔/㇏" d="M31.47,47.4c2.76,1.75,6.58,7.75,8.91,11.14"/>
	</g>
	<g id="kvg:06adb-Jinmei-g2" kvg:element="節" kvg:position="right">
		<g id="kvg:06adb-Jinmei-g3" kvg:element="竹" kvg:variant="true" kvg:position="top">
			<g id="kvg:06adb-Jinmei-g4" kvg:position="left">
				<path style="stroke: #8fbf09;" id="kvg:06adb-Jinmei-s5" kvg:type="㇒" d="M51.34,14.38c0.03,0.41,0.07,1.05-0.07,1.64c-0.8,3.46-4.46,10.17-10.78,14.82"/>
				<path style="stroke: #56bf09;" id="kvg:06adb-Jinmei-s6" kvg:type="㇐b" d="M50.81,22.91c2.34,0,14.17-1.69,16.8-1.69"/>
				<path style="stroke: #1cbf09;" id="kvg:06adb-Jinmei-s7" kvg:type="㇔/㇑" d="M55.34,24.82c1.01,1.36,3.25,6.52,3.5,8.63"/>
			</g>
			<g id="kvg:06adb-Jinmei-g5" kvg:position="right">
				<path style="stroke: #09bf2f;" id="kvg:06adb-Jinmei-s8" kvg:type="㇒" d="M78.28,13.25c0.03,0.35,0.12,0.91-0.05,1.41c-1.27,3.68-5.96,10.39-10.61,14.91"/>
				<path style="stroke: #09bf69;" id="kvg:06adb-Jinmei-s9" kvg:type="㇐b" d="M76.31,22.88c3.9,0,18.17-2.72,22.55-2.72"/>
				<path style="stroke: #09bfa2;" id="kvg:06adb-Jinmei-s10" kvg:type="㇒/㇚" d="M85.6,24.85c0.02,0.2,0.04,0.52-0.04,0.81c-0.43,1.7-3.46,6.29-6.8,8.58"/>
			</g>
		</g>
		<g id="kvg:06adb-Jinmei-g6" kvg:element="即" kvg:position="bottom">
			<g id="kvg:06adb-Jinmei-g7" kvg:element="艮" kvg:partial="true" kvg:position="left">
				<path style="stroke: #09a2bf;" id="kvg:06adb-Jinmei-s11" kvg:type="㇐a" d="M55.25,32.25c0.01,0.16,0.02,0.42-0.02,0.65c-0.27,1.36-2.15,5.03-4.23,6.85"/>
				<path style="stroke: #0969bf;" id="kvg:06adb-Jinmei-s12" kvg:type="㇙" d="M45.77,40.4c0.36,0.74,0.72,1.58,0.72,2.57c0,0.99-0.12,51.8,0,52.78"/>
				<path style="stroke: #092fbf;" id="kvg:06adb-Jinmei-s13" kvg:type="㇔" d="M46.63,41.94c2.04-0.12,16.57-2.05,18.43-2.2c1.55-0.12,2.55,1.37,2.43,2.1c-0.24,1.48-1.78,17.05-2.28,20.34"/>
				<path style="stroke: #1c09bf;" id="kvg:06adb-Jinmei-s14" kvg:type="㇆" d="M46.98,51.54c2.76,0,16.06-1.7,19.18-1.7"/>
				<path style="stroke: #5609bf;" id="kvg:06adb-Jinmei-s15" kvg:type="㇑" d="M46.86,62.25c5.62-0.53,11.42-1.47,18.42-1.93"/>
				<path style="stroke: #8f09bf;" id="kvg:06adb-Jinmei-s16" kvg:type="㇐" d="M46.81,74.06c3.46-0.24,14.81-2.52,18.16-2.36c0.9,0.04,1.45,0.07,1.9,0.13"/>
				<path style="stroke: #bf09b5;" id="kvg:06adb-Jinmei-s17" kvg:type="㇐" d="M47.27,86.59c3.46-0.24,15.27-2.05,18.62-1.88c0.9,0.04,1.45,0.06,1.9,0.13"/>
			</g>
		</g>
		<g id="kvg:06adb-Jinmei-g8" kvg:element="卩">
			<path style="stroke: #bf097c;" id="kvg:06adb-Jinmei-s18" kvg:type="㇕" d="M77.79,40.71c2.84-0.48,12.29-2.48,13.66-2.64c1.36-0.15,3.64-0.31,3.55,2.92c-0.32,11.04-0.77,27.89-2.45,34.82c-2.39,9.83-5.19,0.77-5.6,0.46"/>
			<path style="stroke: #bf0942;" id="kvg:06adb-Jinmei-s19" kvg:type="㇑" d="M76.11,39.82c0.69,0.47,1.1,2.12,1.24,3.07c0.14,0.94,0,47.46-0.14,53.36"/>
		</g>
	</g>
</g>
</g>
<g id="kvg:StrokeNumbers_06adb-Jinmei" style="font-size:8;fill:#808080" transform="scale(3.0,3.0)">
	<text style="fill: #bf0909;" transform="matrix(1 0 0 1 5.85 39.50)">1</text>
	<text style="fill: #bf4209;" transform="matrix(1 0 0 1 18.50 14.50)">2</text>
	<text style="fill: #bf7c09;" transform="matrix(1 0 0 1 18.50 49.50)">3</text>
	<text style="fill: #bfb509;" transform="matrix(1 0 0 1 32.50 46.50)">4</text>
	<text style="fill: #8fbf09;" transform="matrix(1 0 0 1 42.50 15.50)">5</text>
	<text style="fill: #56bf09;" transform="matrix(1 0 0 1 55.50 19.50)">6</text>
	<text style="fill: #1cbf09;" transform="matrix(1 0 0 1 50.50 30.50)">7</text>
	<text style="fill: #09bf2f;" transform="matrix(1 0 0 1 70.50 11.50)">8</text>
	<text style="fill: #09bf69;" transform="matrix(1 0 0 1 82.50 19.50)">9</text>
	<text style="fill: #09bfa2;" transform="matrix(1 0 0 1 73.50 29.95)">10</text>
	<text style="fill: #09a2bf;" transform="matrix(1 0 0 1 45.50 36.50)">11</text>
	<text style="fill: #0969bf;" transform="matrix(1 0 0 1 37.75 48.50)">12</text>
	<text style="fill: #092fbf;" transform="matrix(1 0 0 1 55.00 39.25)">13</text>
	<text style="fill: #1c09bf;" transform="matrix(1 0 0 1 49.50 48.75)">14</text>
	<text style="fill: #5609bf;" transform="matrix(1 0 0 1 49.75 59.33)">15</text>
	<text style="fill: #8f09bf;" transform="matrix(1 0 0 1 50.00 68.75)">16</text>
	<text style="fill: #bf09b5;" transform="matrix(1 0 0 1 50.75 79.68)">17</text>
	<text style="fill: #bf097c;" transform="matrix(1 0 0 1 80.00 38.75)">18</text>
	<text style="fill: #bf0942;" transform="matrix(1 0 0 1 80.75 49.68)">19</text>
</g>
</svg>
