<?xml version="1.0" encoding="UTF-8"?>
<!--
This file has been modified from the original version by the kanji_colorize.py
script (available at http://github.com/cayennes/kanji-colorize) with these
settings:
    mode: spectrum
    saturation: 0.95
    value: 0.75
    image_size: 327
It remains under a Creative Commons-Attribution-Share Alike 3.0 License.

The original SVG has the following copyright:

Copyright (C) 2009/2010/2011 Ulrich Apel.
This work is distributed under the conditions of the Creative Commons
Attribution-Share Alike 3.0 Licence. This means you are free:
* to Share - to copy, distribute and transmit the work
* to Remix - to adapt the work

Under the following conditions:
* Attribution. You must attribute the work by stating your use of KanjiVG in
  your own copyright header and linking to KanjiVG's website
  (http://kanjivg.tagaini.net)
* Share Alike. If you alter, transform, or build upon this work, you may
  distribute the resulting work only under the same or similar license to this
  one.

See http://creativecommons.org/licenses/by-sa/3.0/ for more details.
-->
<!DOCTYPE svg PUBLIC "-//W3C//DTD SVG 1.0//EN" "http://www.w3.org/TR/2001/REC-SVG-20010904/DTD/svg10.dtd" [
<!ATTLIST g
xmlns:kvg CDATA #FIXED "http://kanjivg.tagaini.net"
kvg:element CDATA #IMPLIED
kvg:variant CDATA #IMPLIED
kvg:partial CDATA #IMPLIED
kvg:original CDATA #IMPLIED
kvg:part CDATA #IMPLIED
kvg:number CDATA #IMPLIED
kvg:tradForm CDATA #IMPLIED
kvg:radicalForm CDATA #IMPLIED
kvg:position CDATA #IMPLIED
kvg:radical CDATA #IMPLIED
kvg:phon CDATA #IMPLIED >
<!ATTLIST path
xmlns:kvg CDATA #FIXED "http://kanjivg.tagaini.net"
kvg:type CDATA #IMPLIED >
]>
<svg xmlns="http://www.w3.org/2000/svg" width="327" height = "327" viewBox="0 0 327 327">
<g id="kvg:StrokePaths_07d02-Kaisho" style="fill:none;stroke:#000000;stroke-width:3;stroke-linecap:round;stroke-linejoin:round;" transform="scale(3.0,3.0)">
<g id="kvg:07d02-Kaisho" kvg:element="紂">
	<g id="kvg:07d02-Kaisho-g1" kvg:element="糸" kvg:variant="true" kvg:position="left" kvg:radical="general">
		<path style="stroke: #bf0909;" id="kvg:07d02-Kaisho-s1" kvg:type="㇜" d="M28.83,11.75c0.34,1.51,0.43,2.66-0.17,4.28c-3.04,8.17-6.64,14.08-10.33,20.91c-0.5,0.92-0.68,3.5,0,3.78c3.62,1.51,8.69,4.03,11.79,6.81"/>
		<path style="stroke: #bf8209;" id="kvg:07d02-Kaisho-s2" kvg:type="㇜" d="M41.73,25.38c0.32,0.68,0.42,2.93,0,3.66C35.6,39.76,26.45,54.71,18.03,64.5c-1.93,2.24,0.48,3.53,1.74,3.07c5.27-1.91,16.21-5.32,22.98-7.15"/>
		<path style="stroke: #82bf09;" id="kvg:07d02-Kaisho-s3" kvg:type="㇔" d="M38.37,51.59c2.74,2.75,7.08,11.29,7.76,15.56"/>
		<path style="stroke: #09bf09;" id="kvg:07d02-Kaisho-s4" kvg:type="㇔" d="M12.87,81.48c4.16,3.43,7.35,11.41,8.31,14.52"/>
		<path style="stroke: #09bf82;" id="kvg:07d02-Kaisho-s5" kvg:type="㇔" d="M24.79,77.05c4.71,2.98,8.33,9.89,9.42,12.58"/>
		<path style="stroke: #0982bf;" id="kvg:07d02-Kaisho-s6" kvg:type="㇔" d="M36.71,71.78c4.57,2.38,8.08,7.93,9.15,10.09"/>
	</g>
	<g id="kvg:07d02-Kaisho-g2" kvg:element="寸" kvg:position="right">
		<path style="stroke: #0909bf;" id="kvg:07d02-Kaisho-s7" kvg:type="㇐" d="M47,38.18c1.18,0.26,3.33,0.32,4.52,0.26c13.06-0.72,28.22-2.19,42.61-2.58c1.96-0.05,3.14,0.12,4.12,0.25"/>
		<path style="stroke: #8209bf;" id="kvg:07d02-Kaisho-s8" kvg:type="㇚" d="M80.13,14.08c0.09,0.46,1.27,2.4,1.27,5.32c0,19.66-0.26,63.27-0.26,68.05c0,11.6-5.69,3.89-7.78,1.21"/>
		<path style="stroke: #bf0982;" id="kvg:07d02-Kaisho-s9" kvg:type="㇔" d="M56.75,53c3.56,2.45,9.19,10.06,10.08,13.87"/>
	</g>
</g>
</g>
<g id="kvg:StrokeNumbers_07d02-Kaisho" style="font-size:8;fill:#808080" transform="scale(3.0,3.0)">
	<text style="fill: #bf0909;" transform="matrix(1 0 0 1 22.50 11.50)">1</text>
	<text style="fill: #bf8209;" transform="matrix(1 0 0 1 35.50 25.55)">2</text>
	<text style="fill: #82bf09;" transform="matrix(1 0 0 1 38.50 49.50)">3</text>
	<text style="fill: #09bf09;" transform="matrix(1 0 0 1 6.50 83.50)">4</text>
	<text style="fill: #09bf82;" transform="matrix(1 0 0 1 18.50 78.50)">5</text>
	<text style="fill: #0982bf;" transform="matrix(1 0 0 1 30.50 73.50)">6</text>
	<text style="fill: #0909bf;" transform="matrix(1 0 0 1 47.50 34.50)">7</text>
	<text style="fill: #8209bf;" transform="matrix(1 0 0 1 70.25 14.50)">8</text>
</g>
</svg>
