<?xml version="1.0" encoding="UTF-8"?>
<!--
This file has been modified from the original version by the kanji_colorize.py
script (available at http://github.com/cayennes/kanji-colorize) with these
settings:
    mode: spectrum
    saturation: 0.95
    value: 0.75
    image_size: 327
It remains under a Creative Commons-Attribution-Share Alike 3.0 License.

The original SVG has the following copyright:

Copyright (C) 2009/2010/2011 Ulrich Apel.
This work is distributed under the conditions of the Creative Commons
Attribution-Share Alike 3.0 Licence. This means you are free:
* to Share - to copy, distribute and transmit the work
* to Remix - to adapt the work

Under the following conditions:
* Attribution. You must attribute the work by stating your use of KanjiVG in
  your own copyright header and linking to KanjiVG's website
  (http://kanjivg.tagaini.net)
* Share Alike. If you alter, transform, or build upon this work, you may
  distribute the resulting work only under the same or similar license to this
  one.

See http://creativecommons.org/licenses/by-sa/3.0/ for more details.
-->
<!DOCTYPE svg PUBLIC "-//W3C//DTD SVG 1.0//EN" "http://www.w3.org/TR/2001/REC-SVG-20010904/DTD/svg10.dtd" [
<!ATTLIST g
xmlns:kvg CDATA #FIXED "http://kanjivg.tagaini.net"
kvg:element CDATA #IMPLIED
kvg:variant CDATA #IMPLIED
kvg:partial CDATA #IMPLIED
kvg:original CDATA #IMPLIED
kvg:part CDATA #IMPLIED
kvg:number CDATA #IMPLIED
kvg:tradForm CDATA #IMPLIED
kvg:radicalForm CDATA #IMPLIED
kvg:position CDATA #IMPLIED
kvg:radical CDATA #IMPLIED
kvg:phon CDATA #IMPLIED >
<!ATTLIST path
xmlns:kvg CDATA #FIXED "http://kanjivg.tagaini.net"
kvg:type CDATA #IMPLIED >
]>
<svg xmlns="http://www.w3.org/2000/svg" width="327" height = "327" viewBox="0 0 327 327">
<g id="kvg:StrokePaths_07db8-Kaisho" style="fill:none;stroke:#000000;stroke-width:3;stroke-linecap:round;stroke-linejoin:round;" transform="scale(3.0,3.0)">
<g id="kvg:07db8-Kaisho" kvg:element="綸">
	<g id="kvg:07db8-Kaisho-g1" kvg:element="糸" kvg:variant="true" kvg:position="left" kvg:radical="general">
		<path style="stroke: #bf0909;" id="kvg:07db8-Kaisho-s1" kvg:type="㇜" d="M25.12,13.5c0.32,1.46,0.4,2.58-0.16,4.14c-2.84,7.9-6.21,13.62-9.65,20.23c-0.46,0.89-0.64,3.38,0,3.66c3.38,1.46,8.12,3.9,11.02,6.58"/>
		<path style="stroke: #bf5709;" id="kvg:07db8-Kaisho-s2" kvg:type="㇜" d="M37.18,26.68c0.3,0.66,0.39,2.83,0,3.54C31.45,40.6,22.9,55.05,15.03,64.52c-1.81,2.17,0.45,3.41,1.62,2.97c4.93-1.85,15.15-5.15,21.48-6.91"/>
		<path style="stroke: #bfa509;" id="kvg:07db8-Kaisho-s3" kvg:type="㇔" d="M34.04,52.04c2.56,2.66,6.61,10.92,7.25,15.06"/>
		<path style="stroke: #8bbf09;" id="kvg:07db8-Kaisho-s4" kvg:type="㇔" d="M10.21,80.96c3.89,3.32,6.87,11.04,7.77,14.04"/>
		<path style="stroke: #3dbf09;" id="kvg:07db8-Kaisho-s5" kvg:type="㇔" d="M21.35,76.66c4.4,2.88,7.78,9.56,8.81,12.17"/>
		<path style="stroke: #09bf23;" id="kvg:07db8-Kaisho-s6" kvg:type="㇔" d="M32.49,71.57c4.27,2.31,7.55,7.67,8.55,9.76"/>
	</g>
	<g id="kvg:07db8-Kaisho-g2" kvg:element="侖" kvg:position="right">
		<g id="kvg:07db8-Kaisho-g3" kvg:element="人" kvg:position="top">
			<path style="stroke: #09bf71;" id="kvg:07db8-Kaisho-s7" kvg:type="㇒" d="M66.33,10.4c0.07,0.87,0.14,2.25-0.13,3.5c-1.61,7.39-9.76,22.97-22.96,33.98"/>
			<path style="stroke: #09bfbf;" id="kvg:07db8-Kaisho-s8" kvg:type="㇏" d="M65.62,16.13c5.2,4.82,21.87,23.35,26.26,27.36c1.49,1.36,3.4,1.94,4.89,2.33"/>
		</g>
		<g id="kvg:07db8-Kaisho-g4" kvg:position="bottom">
			<g id="kvg:07db8-Kaisho-g5" kvg:element="一">
				<path style="stroke: #0971bf;" id="kvg:07db8-Kaisho-s9" kvg:type="㇐" d="M54.41,45.1c0.76,0.31,2.16,0.4,2.92,0.31c4.86-0.54,15.71-1.47,21.16-1.77c1.27-0.07,2.04,0.15,2.67,0.3"/>
			</g>
			<g id="kvg:07db8-Kaisho-g6" kvg:element="冊">
				<g id="kvg:07db8-Kaisho-g7" kvg:element="冂">
					<path style="stroke: #0923bf;" id="kvg:07db8-Kaisho-s10" kvg:type="㇑" d="M47.32,56.38c0.5,0.63,1.11,1.63,1.19,2.78c0.46,6.19-0.26,29.73,0.38,36.02"/>
					<path style="stroke: #3d09bf;" id="kvg:07db8-Kaisho-s11" kvg:type="㇆a" d="M49.04,58.71c6.31-0.51,36-2.72,37.24-2.9c2.66-0.38,3.63,2.66,3.65,3.92c0.15,6.76-0.43,17.9-0.43,29.95c0,7.96-3.03,4.35-6.4,1.57"/>
				</g>
				<g id="kvg:07db8-Kaisho-g8" kvg:element="廾" kvg:variant="true">
					<g id="kvg:07db8-Kaisho-g9" kvg:element="十" kvg:part="1" kvg:variant="true">
						<path style="stroke: #8b09bf;" id="kvg:07db8-Kaisho-s12" kvg:type="㇐" d="M49.03,74.48c5.06-0.43,28.66-1.69,32.22-1.9"/>
					</g>
					<g id="kvg:07db8-Kaisho-g10" kvg:element="丿" kvg:variant="true">
						<path style="stroke: #bf09a5;" id="kvg:07db8-Kaisho-s13" kvg:type="㇑" d="M60,59.77c0.74,0.79,1.25,1.72,1.32,4.35c0.3,12.63-0.02,24.86-0.02,29.16"/>
					</g>
					<g id="kvg:07db8-Kaisho-g11" kvg:element="十" kvg:part="2" kvg:variant="true">
						<path style="stroke: #bf0957;" id="kvg:07db8-Kaisho-s14" kvg:type="㇑" d="M72.61,58.67c0.74,0.79,1.25,1.72,1.31,4.35c0.3,12.63-0.02,25.52-0.02,29.82"/>
					</g>
				</g>
			</g>
		</g>
	</g>
</g>
</g>
<g id="kvg:StrokeNumbers_07db8-Kaisho" style="font-size:8;fill:#808080" transform="scale(3.0,3.0)">
	<text style="fill: #bf0909;" transform="matrix(1 0 0 1 19.25 13.25)">1</text>
	<text style="fill: #bf5709;" transform="matrix(1 0 0 1 31.25 26.80)">2</text>
	<text style="fill: #bfa509;" transform="matrix(1 0 0 1 33.25 49.25)">3</text>
	<text style="fill: #8bbf09;" transform="matrix(1 0 0 1 4.25 82.25)">4</text>
	<text style="fill: #3dbf09;" transform="matrix(1 0 0 1 15.25 78.25)">5</text>
	<text style="fill: #09bf23;" transform="matrix(1 0 0 1 26.25 72.25)">6</text>
	<text style="fill: #09bf71;" transform="matrix(1 0 0 1 58.25 11.25)">7</text>
	<text style="fill: #09bfbf;" transform="matrix(1 0 0 1 72.25 20.25)">8</text>
	<text style="fill: #0971bf;" transform="matrix(1 0 0 1 57.25 42.25)">9</text>
	<text style="fill: #0923bf;" transform="matrix(1 0 0 1 39.25 58.25)">10</text>
	<text style="fill: #3d09bf;" transform="matrix(1 0 0 1 50.25 55.25)">11</text>
	<text style="fill: #8b09bf;" transform="matrix(1 0 0 1 50.25 72.05)">12</text>
	<text style="fill: #bf09a5;" transform="matrix(1 0 0 1 63.25 66.25)">13</text>
</g>
</svg>
