<?xml version="1.0" encoding="UTF-8"?>
<!--
This file has been modified from the original version by the kanji_colorize.py
script (available at http://github.com/cayennes/kanji-colorize) with these
settings:
    mode: spectrum
    saturation: 0.95
    value: 0.75
    image_size: 327
It remains under a Creative Commons-Attribution-Share Alike 3.0 License.

The original SVG has the following copyright:

Copyright (C) 2009/2010/2011 Ulrich Apel.
This work is distributed under the conditions of the Creative Commons
Attribution-Share Alike 3.0 Licence. This means you are free:
* to Share - to copy, distribute and transmit the work
* to Remix - to adapt the work

Under the following conditions:
* Attribution. You must attribute the work by stating your use of KanjiVG in
  your own copyright header and linking to KanjiVG's website
  (http://kanjivg.tagaini.net)
* Share Alike. If you alter, transform, or build upon this work, you may
  distribute the resulting work only under the same or similar license to this
  one.

See http://creativecommons.org/licenses/by-sa/3.0/ for more details.
-->
<!DOCTYPE svg PUBLIC "-//W3C//DTD SVG 1.0//EN" "http://www.w3.org/TR/2001/REC-SVG-20010904/DTD/svg10.dtd" [
<!ATTLIST g
xmlns:kvg CDATA #FIXED "http://kanjivg.tagaini.net"
kvg:element CDATA #IMPLIED
kvg:variant CDATA #IMPLIED
kvg:partial CDATA #IMPLIED
kvg:original CDATA #IMPLIED
kvg:part CDATA #IMPLIED
kvg:number CDATA #IMPLIED
kvg:tradForm CDATA #IMPLIED
kvg:radicalForm CDATA #IMPLIED
kvg:position CDATA #IMPLIED
kvg:radical CDATA #IMPLIED
kvg:phon CDATA #IMPLIED >
<!ATTLIST path
xmlns:kvg CDATA #FIXED "http://kanjivg.tagaini.net"
kvg:type CDATA #IMPLIED >
]>
<svg xmlns="http://www.w3.org/2000/svg" width="327" height = "327" viewBox="0 0 327 327">
<g id="kvg:StrokePaths_07e70-Kaisho" style="fill:none;stroke:#000000;stroke-width:3;stroke-linecap:round;stroke-linejoin:round;" transform="scale(3.0,3.0)">
<g id="kvg:07e70-Kaisho" kvg:element="繰">
	<g id="kvg:07e70-Kaisho-g1" kvg:element="糸" kvg:variant="true" kvg:position="left" kvg:radical="general">
		<path style="stroke: #bf0909;" id="kvg:07e70-Kaisho-s1" kvg:type="㇜" d="M25.37,15.25c0.32,1.42,0.4,2.5-0.16,4.02c-2.84,7.66-6.21,13.2-9.65,19.61c-0.46,0.86-0.64,3.28,0,3.55c3.38,1.42,8.12,3.78,11.02,6.38"/>
		<path style="stroke: #bf4209;" id="kvg:07e70-Kaisho-s2" kvg:type="㇜" d="M37.43,28.03c0.3,0.64,0.39,2.75,0,3.43C31.7,41.52,23.15,55.53,15.28,64.71c-1.81,2.1,0.45,3.31,1.62,2.88c4.93-1.79,15.15-4.99,21.48-6.7"/>
		<path style="stroke: #bf7c09;" id="kvg:07e70-Kaisho-s3" kvg:type="㇔" d="M34.29,52.61c2.56,2.58,6.61,10.59,7.25,14.59"/>
		<path style="stroke: #bfb509;" id="kvg:07e70-Kaisho-s4" kvg:type="㇔" d="M10.46,80.64c3.89,3.22,6.87,10.7,7.77,13.61"/>
		<path style="stroke: #8fbf09;" id="kvg:07e70-Kaisho-s5" kvg:type="㇔" d="M21.6,76.48c4.4,2.79,7.78,9.27,8.81,11.8"/>
		<path style="stroke: #56bf09;" id="kvg:07e70-Kaisho-s6" kvg:type="㇔" d="M32.74,71.54c4.27,2.24,7.55,7.43,8.55,9.46"/>
	</g>
	<g id="kvg:07e70-Kaisho-g2" kvg:element="喿" kvg:position="right">
		<g id="kvg:07e70-Kaisho-g3" kvg:element="品" kvg:position="top">
			<g id="kvg:07e70-Kaisho-g4" kvg:element="口" kvg:position="top">
				<path style="stroke: #1cbf09;" id="kvg:07e70-Kaisho-s7" kvg:type="㇑" d="M54.04,16.72c0.4,0.27,0.8,0.5,0.98,0.84c1.38,2.71,2.41,9.91,3.36,14.78"/>
				<path style="stroke: #09bf2f;" id="kvg:07e70-Kaisho-s8" kvg:type="㇕b" d="M56.09,18.54c8.12-1.41,18.92-3.2,23.58-3.55c1.7-0.13,2.72,1.03,2.48,1.8c-1.01,3.17-1.88,6.99-3.38,11.37"/>
				<path style="stroke: #09bf69;" id="kvg:07e70-Kaisho-s9" kvg:type="㇐b" d="M59.67,30.5c5.46-0.4,13-1.34,20.5-1.96"/>
			</g>
			<g id="kvg:07e70-Kaisho-g5" kvg:position="bottom">
				<g id="kvg:07e70-Kaisho-g6" kvg:element="口" kvg:position="left">
					<path style="stroke: #09bfa2;" id="kvg:07e70-Kaisho-s10" kvg:type="㇑" d="M47.25,40.35c0.25,0.27,0.51,0.5,0.62,0.84c0.88,2.71,2.16,9.19,2.76,14.06"/>
					<path style="stroke: #09a2bf;" id="kvg:07e70-Kaisho-s11" kvg:type="㇕b" d="M48.82,41.15c6.39-0.99,10.65-1.92,13.6-2.28c1.08-0.13,1.73,0.77,1.58,1.54c-0.64,3.17-1.39,7.25-2.34,11.63"/>
					<path style="stroke: #0969bf;" id="kvg:07e70-Kaisho-s12" kvg:type="㇐b" d="M50.75,53.39c3.47-0.4,6.32-0.37,12.79-0.96"/>
				</g>
				<g id="kvg:07e70-Kaisho-g7" kvg:element="口" kvg:position="right">
					<path style="stroke: #092fbf;" id="kvg:07e70-Kaisho-s13" kvg:type="㇑" d="M72.92,39.2c0.26,0.27,0.53,0.5,0.65,0.84c0.91,2.71,1.45,7.91,2.08,12.78"/>
					<path style="stroke: #1c09bf;" id="kvg:07e70-Kaisho-s14" kvg:type="㇕b" d="M74.56,40.26c6.67-0.99,11.79-2.2,14.88-2.56c1.13-0.13,1.81,0.77,1.64,1.54c-0.67,3.17-1.45,5.79-2.44,10.17"/>
					<path style="stroke: #5609bf;" id="kvg:07e70-Kaisho-s15" kvg:type="㇐b" d="M76.05,51.74c5.05-0.35,6.68-1.48,14.55-1.94"/>
				</g>
			</g>
		</g>
		<g id="kvg:07e70-Kaisho-g8" kvg:element="木" kvg:position="bottom">
			<path style="stroke: #8f09bf;" id="kvg:07e70-Kaisho-s16" kvg:type="㇐" d="M45.15,67.05c1.27,0.41,2.71,0.54,4.16,0.41c7.42-0.67,28.95-3.53,40.17-4.32c1.45-0.1,2.35,0.07,3.8,0.36"/>
			<path style="stroke: #bf09b5;" id="kvg:07e70-Kaisho-s17" kvg:type="㇚" d="M66.54,54.67c1.35,0.54,2.43,2.4,2.43,3.51c0,11.34-0.27,26.4-0.27,33.16c0,9.17-4.2,2.42-4.95,1.42"/>
			<path style="stroke: #bf097c;" id="kvg:07e70-Kaisho-s18" kvg:type="㇒" d="M66.3,65.93C61.91,74.14,50.14,86.7,41,91.35"/>
			<path style="stroke: #bf0942;" id="kvg:07e70-Kaisho-s19" kvg:type="㇏" d="M70.29,66.25c3.44,3.01,19.6,18.09,23.34,21.05c1.27,1,2.35,1.43,3.62,1.72"/>
		</g>
	</g>
</g>
</g>
<g id="kvg:StrokeNumbers_07e70-Kaisho" style="font-size:8;fill:#808080" transform="scale(3.0,3.0)">
	<text style="fill: #bf0909;" transform="matrix(1 0 0 1 19.50 16.50)">1</text>
	<text style="fill: #bf4209;" transform="matrix(1 0 0 1 30.75 28.50)">2</text>
	<text style="fill: #bf7c09;" transform="matrix(1 0 0 1 32.50 50.50)">3</text>
	<text style="fill: #bfb509;" transform="matrix(1 0 0 1 4.50 83.50)">4</text>
	<text style="fill: #8fbf09;" transform="matrix(1 0 0 1 15.50 78.50)">5</text>
	<text style="fill: #56bf09;" transform="matrix(1 0 0 1 26.50 73.50)">6</text>
	<text style="fill: #1cbf09;" transform="matrix(1 0 0 1 48.75 25.63)">7</text>
	<text style="fill: #09bf2f;" transform="matrix(1 0 0 1 58.50 14.50)">8</text>
	<text style="fill: #09bf69;" transform="matrix(1 0 0 1 62.25 27.50)">9</text>
	<text style="fill: #09bfa2;" transform="matrix(1 0 0 1 38.50 48.13)">10</text>
	<text style="fill: #09a2bf;" transform="matrix(1 0 0 1 48.50 38.13)">11</text>
	<text style="fill: #0969bf;" transform="matrix(1 0 0 1 52.50 50.50)">12</text>
	<text style="fill: #092fbf;" transform="matrix(1 0 0 1 65.50 48.50)">13</text>
	<text style="fill: #1c09bf;" transform="matrix(1 0 0 1 75.50 37.63)">14</text>
	<text style="fill: #5609bf;" transform="matrix(1 0 0 1 77.25 48.50)">15</text>
	<text style="fill: #8f09bf;" transform="matrix(1 0 0 1 45.00 64.50)">16</text>
	<text style="fill: #bf09b5;" transform="matrix(1 0 0 1 57.75 61.55)">17</text>
	<text style="fill: #bf097c;" transform="matrix(1 0 0 1 49.50 76.50)">18</text>
</g>
</svg>
