<?xml version="1.0" encoding="UTF-8"?>
<!--
This file has been modified from the original version by the kanji_colorize.py
script (available at http://github.com/cayennes/kanji-colorize) with these
settings:
    mode: spectrum
    saturation: 0.95
    value: 0.75
    image_size: 327
It remains under a Creative Commons-Attribution-Share Alike 3.0 License.

The original SVG has the following copyright:

Copyright (C) 2009/2010/2011 Ulrich Apel.
This work is distributed under the conditions of the Creative Commons
Attribution-Share Alike 3.0 Licence. This means you are free:
* to Share - to copy, distribute and transmit the work
* to Remix - to adapt the work

Under the following conditions:
* Attribution. You must attribute the work by stating your use of KanjiVG in
  your own copyright header and linking to KanjiVG's website
  (http://kanjivg.tagaini.net)
* Share Alike. If you alter, transform, or build upon this work, you may
  distribute the resulting work only under the same or similar license to this
  one.

See http://creativecommons.org/licenses/by-sa/3.0/ for more details.
-->
<!DOCTYPE svg PUBLIC "-//W3C//DTD SVG 1.0//EN" "http://www.w3.org/TR/2001/REC-SVG-20010904/DTD/svg10.dtd" [
<!ATTLIST g
xmlns:kvg CDATA #FIXED "http://kanjivg.tagaini.net"
kvg:element CDATA #IMPLIED
kvg:variant CDATA #IMPLIED
kvg:partial CDATA #IMPLIED
kvg:original CDATA #IMPLIED
kvg:part CDATA #IMPLIED
kvg:number CDATA #IMPLIED
kvg:tradForm CDATA #IMPLIED
kvg:radicalForm CDATA #IMPLIED
kvg:position CDATA #IMPLIED
kvg:radical CDATA #IMPLIED
kvg:phon CDATA #IMPLIED >
<!ATTLIST path
xmlns:kvg CDATA #FIXED "http://kanjivg.tagaini.net"
kvg:type CDATA #IMPLIED >
]>
<svg xmlns="http://www.w3.org/2000/svg" width="327" height = "327" viewBox="0 0 327 327">
<g id="kvg:StrokePaths_07e93-Kaisho" style="fill:none;stroke:#000000;stroke-width:3;stroke-linecap:round;stroke-linejoin:round;" transform="scale(3.0,3.0)">
<g id="kvg:07e93-Kaisho" kvg:element="纓">
	<g id="kvg:07e93-Kaisho-g1" kvg:element="糸" kvg:variant="true" kvg:position="left" kvg:radical="general">
		<path style="stroke: #bf0909;" id="kvg:07e93-Kaisho-s1" kvg:type="㇜" d="M47.7,13.5c0.25,0.68,0.61,1.18,0.61,2.09c0,0.9,0.11,22.13-0.18,25.91"/>
		<path style="stroke: #bf3809;" id="kvg:07e93-Kaisho-s2" kvg:type="㇜" d="M48.72,14.64c1.48-0.11,12.73-2.02,14.08-2.16c1.12-0.11,1.72,0.61,1.72,1.44c0,2.02-0.33,26.46-0.33,27.12"/>
		<path style="stroke: #bf6809;" id="kvg:07e93-Kaisho-s3" kvg:type="㇔" d="M48.34,22.52c2.63-0.24,7.33-1.16,9.59-1.16"/>
		<path style="stroke: #bf9709;" id="kvg:07e93-Kaisho-s4" kvg:type="㇔" d="M48.45,31.26c3.97-0.52,5.28-1.06,9.49-1.17"/>
		<path style="stroke: #b7bf09;" id="kvg:07e93-Kaisho-s5" kvg:type="㇔" d="M48.27,40.43c3.9-0.38,11.36-1.38,14.92-1.38"/>
		<path style="stroke: #87bf09;" id="kvg:07e93-Kaisho-s6" kvg:type="㇔" d="M53.58,45.23c0.26,0.88-0.2,1.75-0.71,2.39c-1.56,1.94-5.65,6.09-8.77,8.38"/>
	</g>
	<g id="kvg:07e93-Kaisho-g2" kvg:element="嬰" kvg:position="right">
		<g id="kvg:07e93-Kaisho-g3" kvg:position="top">
			<g id="kvg:07e93-Kaisho-g4" kvg:element="貝" kvg:position="left">
				<g id="kvg:07e93-Kaisho-g5" kvg:element="目" kvg:position="top">
					<path style="stroke: #58bf09;" id="kvg:07e93-Kaisho-s7" kvg:type="㇑" d="M60.84,45.47c2.22,1.87,4.84,5.27,5.45,6.9"/>
					<path style="stroke: #29bf09;" id="kvg:07e93-Kaisho-s8" kvg:type="㇕a" d="M73.52,11.18c0.25,0.66,0.61,1.15,0.61,2.03s0.61,22.53,0.32,26.22"/>
					<path style="stroke: #09bf19;" id="kvg:07e93-Kaisho-s9" kvg:type="㇐a" d="M74.55,12.88c1.59-0.11,13.74-1.51,15.19-1.64c1.21-0.11,1.86,0.6,1.86,1.43c0,2-0.36,26.23-0.36,26.89"/>
					<path style="stroke: #09bf48;" id="kvg:07e93-Kaisho-s10" kvg:type="㇐a" d="M74.66,21.38c2.63-0.27,8.33-1.4,10.59-1.4"/>
					<path style="stroke: #09bf78;" id="kvg:07e93-Kaisho-s11" kvg:type="㇐a" d="M74.78,29.55c3.97-0.39,6.28-0.67,10.49-0.75"/>
				</g>
				<g id="kvg:07e93-Kaisho-g6" kvg:element="八" kvg:position="bottom">
					<path style="stroke: #09bfa7;" id="kvg:07e93-Kaisho-s12" kvg:type="㇒" d="M75.1,38.59c3.97-0.26,11.55-0.95,15.17-0.95"/>
					<path style="stroke: #09a7bf;" id="kvg:07e93-Kaisho-s13" kvg:type="㇔" d="M78.5,42.75c0.2,0.72-0.15,1.42-0.54,1.94c-1.19,1.58-4.32,4.94-6.71,6.81"/>
				</g>
			</g>
			<g id="kvg:07e93-Kaisho-g7" kvg:element="貝" kvg:position="right">
				<g id="kvg:07e93-Kaisho-g8" kvg:element="目" kvg:position="top">
					<path style="stroke: #0978bf;" id="kvg:07e93-Kaisho-s14" kvg:type="㇑" d="M86.4,44.22c3.34,2.21,7.28,6.22,8.19,8.15"/>
					<path style="stroke: #0948bf;" id="kvg:07e93-Kaisho-s15" kvg:type="㇕a" d="M65.53,56.62c0.43,1.08,0.37,2.56-0.21,3.79c-3.15,6.64-5.11,10.13-10.42,17.7c-1.16,1.65-0.24,1.93,0.64,1.98c12.75,0.73,22.83,7.79,31.97,16.17"/>
					<path style="stroke: #0919bf;" id="kvg:07e93-Kaisho-s16" kvg:type="㇐a" d="M80.75,61.25c0.09,0.81,0.16,2.8-0.19,3.98C77.7,74.81,69.75,90.5,49.04,95.5"/>
					<path style="stroke: #2909bf;" id="kvg:07e93-Kaisho-s17" kvg:type="㇐a" d="M45.63,66.4c1.36,0.38,2.81,0.63,3.46,0.57c13.73-1.18,31.47-3.32,44.58-3.48c1.09-0.01,2.96,0.23,3.84,0.66"/>
					<path style="stroke: #5809bf;" id="kvg:07e93-Kaisho-s18" kvg:type="㇐a" d="M24.16,14.25c0.3,1.46,0.38,2.58-0.15,4.14c-2.66,7.9-5.81,13.62-9.03,20.23c-0.43,0.89-0.6,3.38,0,3.66c3.16,1.46,7.6,3.9,10.31,6.58"/>
				</g>
				<g id="kvg:07e93-Kaisho-g9" kvg:position="bottom">
					<path style="stroke: #8709bf;" id="kvg:07e93-Kaisho-s19" kvg:type="㇒" d="M35.45,27.43c0.28,0.66,0.36,2.83,0,3.54C30.08,41.35,22.08,55.8,14.72,65.27c-1.69,2.17,0.42,3.41,1.52,2.97c4.61-1.85,14.18-5.15,20.1-6.91"/>
					<path style="stroke: #b709bf;" id="kvg:07e93-Kaisho-s20" kvg:type="㇔" d="M32.51,52.79c2.4,2.66,6.19,10.92,6.79,15.06"/>
				</g>
			</g>
		</g>
		<g id="kvg:07e93-Kaisho-g10" kvg:element="女" kvg:position="bottom">
			<path style="stroke: #bf0997;" id="kvg:07e93-Kaisho-s21" kvg:type="㇛" d="M10.21,81.71c3.64,3.32,6.43,11.04,7.27,14.04"/>
			<path style="stroke: #bf0968;" id="kvg:07e93-Kaisho-s22" kvg:type="㇒" d="M20.63,77.41c4.12,2.88,7.28,9.56,8.24,12.17"/>
			<path style="stroke: #bf0938;" id="kvg:07e93-Kaisho-s23" kvg:type="㇐" d="M31.05,72.32c4,2.31,7.07,7.67,8,9.76"/>
		</g>
	</g>
</g>
</g>
<g id="kvg:StrokeNumbers_07e93-Kaisho" style="font-size:8;fill:#808080" transform="scale(3.0,3.0)">
	<text style="fill: #bf0909;" transform="matrix(1 0 0 1 19.25 13.38)">1</text>
	<text style="fill: #bf3809;" transform="matrix(1 0 0 1 32.25 25.25)">2</text>
	<text style="fill: #bf6809;" transform="matrix(1 0 0 1 31.25 51.25)">3</text>
	<text style="fill: #bf9709;" transform="matrix(1 0 0 1 4.25 83.25)">4</text>
	<text style="fill: #b7bf09;" transform="matrix(1 0 0 1 15.25 79.25)">5</text>
	<text style="fill: #87bf09;" transform="matrix(1 0 0 1 25.25 74.25)">6</text>
	<text style="fill: #58bf09;" transform="matrix(1 0 0 1 40.25 20.25)">7</text>
	<text style="fill: #29bf09;" transform="matrix(1 0 0 1 50.25 11.25)">8</text>
	<text style="fill: #09bf19;" transform="matrix(1 0 0 1 52.25 20.25)">9</text>
	<text style="fill: #09bf48;" transform="matrix(1 0 0 1 51.02 28.70)">10</text>
	<text style="fill: #09bf78;" transform="matrix(1 0 0 1 51.25 37.25)">11</text>
	<text style="fill: #09bfa7;" transform="matrix(1 0 0 1 41.00 49.25)">12</text>
	<text style="fill: #09a7bf;" transform="matrix(1 0 0 1 55.00 52.48)">13</text>
	<text style="fill: #0978bf;" transform="matrix(1 0 0 1 66.25 21.25)">14</text>
	<text style="fill: #0948bf;" transform="matrix(1 0 0 1 73.25 9.25)">15</text>
	<text style="fill: #0919bf;" transform="matrix(1 0 0 1 77.21 18.75)">16</text>
	<text style="fill: #2909bf;" transform="matrix(1 0 0 1 77.25 27.18)">17</text>
	<text style="fill: #5809bf;" transform="matrix(1 0 0 1 77.22 36.25)">18</text>
	<text style="fill: #8709bf;" transform="matrix(1 0 0 1 67.00 46.03)">19</text>
	<text style="fill: #b709bf;" transform="matrix(1 0 0 1 81.25 51.25)">20</text>
	<text style="fill: #bf0997;" transform="matrix(1 0 0 1 56.25 59.25)">21</text>
	<text style="fill: #bf0968;" transform="matrix(1 0 0 1 75.50 59.25)">22</text>
</g>
</svg>
