<?xml version="1.0" encoding="UTF-8"?>
<!--
This file has been modified from the original version by the kanji_colorize.py
script (available at http://github.com/cayennes/kanji-colorize) with these
settings:
    mode: spectrum
    saturation: 0.95
    value: 0.75
    image_size: 327
It remains under a Creative Commons-Attribution-Share Alike 3.0 License.

The original SVG has the following copyright:

Copyright (C) 2009/2010/2011 Ulrich Apel.
This work is distributed under the conditions of the Creative Commons
Attribution-Share Alike 3.0 Licence. This means you are free:
* to Share - to copy, distribute and transmit the work
* to Remix - to adapt the work

Under the following conditions:
* Attribution. You must attribute the work by stating your use of KanjiVG in
  your own copyright header and linking to KanjiVG's website
  (http://kanjivg.tagaini.net)
* Share Alike. If you alter, transform, or build upon this work, you may
  distribute the resulting work only under the same or similar license to this
  one.

See http://creativecommons.org/licenses/by-sa/3.0/ for more details.
-->
<!DOCTYPE svg PUBLIC "-//W3C//DTD SVG 1.0//EN" "http://www.w3.org/TR/2001/REC-SVG-20010904/DTD/svg10.dtd" [
<!ATTLIST g
xmlns:kvg CDATA #FIXED "http://kanjivg.tagaini.net"
kvg:element CDATA #IMPLIED
kvg:variant CDATA #IMPLIED
kvg:partial CDATA #IMPLIED
kvg:original CDATA #IMPLIED
kvg:part CDATA #IMPLIED
kvg:number CDATA #IMPLIED
kvg:tradForm CDATA #IMPLIED
kvg:radicalForm CDATA #IMPLIED
kvg:position CDATA #IMPLIED
kvg:radical CDATA #IMPLIED
kvg:phon CDATA #IMPLIED >
<!ATTLIST path
xmlns:kvg CDATA #FIXED "http://kanjivg.tagaini.net"
kvg:type CDATA #IMPLIED >
]>
<svg xmlns="http://www.w3.org/2000/svg" width="327" height = "327" viewBox="0 0 327 327">
<g id="kvg:StrokePaths_07e96-Kaisho" style="fill:none;stroke:#000000;stroke-width:3;stroke-linecap:round;stroke-linejoin:round;" transform="scale(3.0,3.0)">
<g id="kvg:07e96-Kaisho" kvg:element="纖">
	<g id="kvg:07e96-Kaisho-g1" kvg:element="糸" kvg:variant="true" kvg:position="left" kvg:radical="general">
		<path style="stroke: #bf0909;" id="kvg:07e96-Kaisho-s1" kvg:type="㇜" d="M24.62,16c0.32,1.42,0.4,2.5-0.16,4.02c-2.84,7.66-6.21,13.2-9.65,19.61c-0.46,0.86-0.64,3.28,0,3.55c3.38,1.42,8.12,3.78,11.02,6.38"/>
		<path style="stroke: #bf3809;" id="kvg:07e96-Kaisho-s2" kvg:type="㇜" d="M36.68,28.78c0.3,0.64,0.39,2.75,0,3.43C30.95,42.27,22.4,56.28,14.53,65.46c-1.8,2.1,0.45,3.31,1.62,2.88c4.93-1.79,15.15-4.99,21.48-6.7"/>
		<path style="stroke: #bf6809;" id="kvg:07e96-Kaisho-s3" kvg:type="㇔" d="M33.54,53.36c2.56,2.58,6.61,10.59,7.25,14.59"/>
		<path style="stroke: #bf9709;" id="kvg:07e96-Kaisho-s4" kvg:type="㇔" d="M9.71,81.39c3.89,3.22,6.87,10.7,7.77,13.61"/>
		<path style="stroke: #b7bf09;" id="kvg:07e96-Kaisho-s5" kvg:type="㇔" d="M20.85,77.23c4.4,2.79,7.78,9.27,8.81,11.8"/>
		<path style="stroke: #87bf09;" id="kvg:07e96-Kaisho-s6" kvg:type="㇔" d="M31.99,72.29c4.27,2.24,7.55,7.43,8.55,9.46"/>
	</g>
	<g id="kvg:07e96-Kaisho-g2" kvg:position="right">
		<g id="kvg:07e96-Kaisho-g3" kvg:element="从">
			<g id="kvg:07e96-Kaisho-g4" kvg:element="人" kvg:position="left">
				<path style="stroke: #58bf09;" id="kvg:07e96-Kaisho-s7" kvg:type="㇒" d="M51,15.52c0.24,0.31,0.18,0.93,0.16,1.56C51,22.16,46.75,30.5,41.75,36"/>
				<path style="stroke: #29bf09;" id="kvg:07e96-Kaisho-s8" kvg:type="㇏" d="M50.21,25.95c1.82,0.99,4.16,4.64,5.04,7.14"/>
			</g>
			<g id="kvg:07e96-Kaisho-g5" kvg:element="人" kvg:position="right">
				<path style="stroke: #09bf19;" id="kvg:07e96-Kaisho-s9" kvg:type="㇒" d="M66.24,14.76c0.24,0.33,0.22,0.99,0.17,1.66C66,22,63,30,56.75,36.5"/>
				<path style="stroke: #09bf48;" id="kvg:07e96-Kaisho-s10" kvg:type="㇏" d="M65.46,25.44c1.92,1.2,4.36,4.39,5.29,7.4"/>
			</g>
		</g>
		<g id="kvg:07e96-Kaisho-g6" kvg:element="戈" kvg:part="1">
			<g id="kvg:07e96-Kaisho-g7" kvg:element="弋" kvg:part="1">
				<path style="stroke: #09bf78;" id="kvg:07e96-Kaisho-s11" kvg:type="㇐" d="M42,41.14c1.1,0.4,3.11,0.47,4.22,0.4c8.58-0.54,33.52-4.01,43.43-4.55c1.83-0.1,2.93,0.19,3.85,0.39"/>
			</g>
		</g>
		<g id="kvg:07e96-Kaisho-g8" kvg:element="韭">
			<g id="kvg:07e96-Kaisho-g9" kvg:element="非">
				<g id="kvg:07e96-Kaisho-g10" kvg:position="left">
					<path style="stroke: #09bfa7;" id="kvg:07e96-Kaisho-s12" kvg:type="㇑" d="M53.19,42.75c0.69,0.33,1.1,1.5,1.24,2.17c0.14,0.67,0,37.31-0.14,41.48"/>
					<path style="stroke: #09a7bf;" id="kvg:07e96-Kaisho-s13" kvg:type="㇐c" d="M62.67,41.5c0.46,0.32,0.74,1.46,0.83,2.11c0.09,0.65,0,34.09-0.09,38.14"/>
					<path style="stroke: #0978bf;" id="kvg:07e96-Kaisho-s14" kvg:type="㇐c" d="M43.85,52.65c0.29,0.46,0.83,0.46,1.13,0.46c2.41-0.03,5.24-0.79,7.42-1.22c0.49-0.1,0.72-0.17,1.03-0.17"/>
					<path style="stroke: #0948bf;" id="kvg:07e96-Kaisho-s15" kvg:type="㇀" d="M44.71,63.49c0.3,0.35,0.86,0.35,1.17,0.35c2.48-0.02,4.88-1.05,7.13-1.37c0.51-0.07,0.74-0.12,1.07-0.12"/>
				</g>
				<g id="kvg:07e96-Kaisho-g11" kvg:position="right">
					<path style="stroke: #0919bf;" id="kvg:07e96-Kaisho-s16" kvg:type="㇑" d="M42.28,75.23c0.35,0.35,0.99,0.35,1.34,0.35c2.84-0.02,5.96-1.05,8.73-2.29c0.57-0.26,0.85-0.13,1.22-0.13"/>
					<path style="stroke: #2909bf;" id="kvg:07e96-Kaisho-s17" kvg:type="㇐b" d="M65,50.75c0.4,0,0.38-0.01,0.68-0.07c1.93-0.4,4.48-1.08,6.32-1.46c0.5-0.1,0.81,0.11,1.06,0.23"/>
					<path style="stroke: #5809bf;" id="kvg:07e96-Kaisho-s18" kvg:type="㇐b" d="M65.11,60.64c0.48,0,0.45-0.01,0.81-0.08c2.31-0.47,5.54-1.26,7.74-1.69c0.6-0.12,0.97,0.13,1.27,0.26"/>
					<path style="stroke: #8709bf;" id="kvg:07e96-Kaisho-s19" kvg:type="㇐b" d="M63.88,71.23c0.5,0,0.46-0.01,0.84-0.09c2.39-0.48,6.16-1.29,8.45-1.74c0.62-0.12,1,0.13,1.32,0.27"/>
				</g>
			</g>
			<g id="kvg:07e96-Kaisho-g12" kvg:element="一">
				<path style="stroke: #b709bf;" id="kvg:07e96-Kaisho-s20" kvg:type="㇐" d="M44.75,90.49c0.88,1.25,3.04,0.77,3.71,0.4c9.61-5.27,17.99-8.77,27.04-13.64"/>
			</g>
		</g>
		<g id="kvg:07e96-Kaisho-g13" kvg:element="戈" kvg:part="2">
			<g id="kvg:07e96-Kaisho-g14" kvg:element="弋" kvg:part="2">
				<path style="stroke: #bf0997;" id="kvg:07e96-Kaisho-s21" kvg:type="㇂" d="M74.25,11.75c0.93,1.78,1.08,2.28,1.28,6.11c1.63,32.08,7.55,63.39,18.93,75.36c3.65,3.84,3.13,0.76,2.67-7.13"/>
			</g>
			<g id="kvg:07e96-Kaisho-g15" kvg:element="丿">
				<path style="stroke: #bf0968;" id="kvg:07e96-Kaisho-s22" kvg:type="㇒" d="M90.49,46.5c0.07,1.08,0.11,2.77-0.14,4.33c-1.85,11.42-10.1,30.92-25.1,42.92"/>
			</g>
			<g id="kvg:07e96-Kaisho-g16" kvg:element="弋" kvg:part="3">
				<g id="kvg:07e96-Kaisho-g17" kvg:element="丶">
					<path style="stroke: #bf0938;" id="kvg:07e96-Kaisho-s23" kvg:type="㇔" d="M82.99,18.55c2.61,2.04,6.79,6.71,8.01,10.2"/>
				</g>
			</g>
		</g>
	</g>
</g>
</g>
<g id="kvg:StrokeNumbers_07e96-Kaisho" style="font-size:8;fill:#808080" transform="scale(3.0,3.0)">
	<text style="fill: #bf0909;" transform="matrix(1 0 0 1 20.25 15.25)">1</text>
	<text style="fill: #bf3809;" transform="matrix(1 0 0 1 30.25 27.25)">2</text>
	<text style="fill: #bf6809;" transform="matrix(1 0 0 1 32.25 51.25)">3</text>
	<text style="fill: #bf9709;" transform="matrix(1 0 0 1 4.25 83.25)">4</text>
	<text style="fill: #b7bf09;" transform="matrix(1 0 0 1 15.25 79.25)">5</text>
	<text style="fill: #87bf09;" transform="matrix(1 0 0 1 26.25 74.25)">6</text>
	<text style="fill: #58bf09;" transform="matrix(1 0 0 1 43.25 15.25)">7</text>
	<text style="fill: #29bf09;" transform="matrix(1 0 0 1 53.25 25.85)">8</text>
	<text style="fill: #09bf19;" transform="matrix(1 0 0 1 58.25 13.78)">9</text>
	<text style="fill: #09bf48;" transform="matrix(1 0 0 1 67.25 26.70)">10</text>
	<text style="fill: #09bf78;" transform="matrix(1 0 0 1 45.25 39.25)">11</text>
	<text style="fill: #09bfa7;" transform="matrix(1 0 0 1 45.25 49.25)">12</text>
	<text style="fill: #09a7bf;" transform="matrix(1 0 0 1 56.25 49.98)">13</text>
	<text style="fill: #0978bf;" transform="matrix(1 0 0 1 38.25 51.25)">14</text>
	<text style="fill: #0948bf;" transform="matrix(1 0 0 1 44.25 61.25)">15</text>
	<text style="fill: #0919bf;" transform="matrix(1 0 0 1 41.25 72.25)">16</text>
	<text style="fill: #2909bf;" transform="matrix(1 0 0 1 65.75 46.93)">17</text>
	<text style="fill: #5809bf;" transform="matrix(1 0 0 1 66.00 57.35)">18</text>
	<text style="fill: #8709bf;" transform="matrix(1 0 0 1 66.25 67.25)">19</text>
	<text style="fill: #b709bf;" transform="matrix(1 0 0 1 43.25 86.25)">20</text>
	<text style="fill: #bf0997;" transform="matrix(1 0 0 1 69.25 9.63)">21</text>
	<text style="fill: #bf0968;" transform="matrix(1 0 0 1 81.25 46.25)">22</text>
	<text style="fill: #bf0938;" transform="matrix(1 0 0 1 81.25 16.25)">23</text>
</g>
</svg>
