<?xml version="1.0" encoding="UTF-8"?>
<!--
This file has been modified from the original version by the kanji_colorize.py
script (available at http://github.com/cayennes/kanji-colorize) with these
settings:
    mode: spectrum
    saturation: 0.95
    value: 0.75
    image_size: 327
It remains under a Creative Commons-Attribution-Share Alike 3.0 License.

The original SVG has the following copyright:

Copyright (C) 2009/2010/2011 Ulrich Apel.
This work is distributed under the conditions of the Creative Commons
Attribution-Share Alike 3.0 Licence. This means you are free:
* to Share - to copy, distribute and transmit the work
* to Remix - to adapt the work

Under the following conditions:
* Attribution. You must attribute the work by stating your use of KanjiVG in
  your own copyright header and linking to KanjiVG's website
  (http://kanjivg.tagaini.net)
* Share Alike. If you alter, transform, or build upon this work, you may
  distribute the resulting work only under the same or similar license to this
  one.

See http://creativecommons.org/licenses/by-sa/3.0/ for more details.
-->
<!DOCTYPE svg PUBLIC "-//W3C//DTD SVG 1.0//EN" "http://www.w3.org/TR/2001/REC-SVG-20010904/DTD/svg10.dtd" [
<!ATTLIST g
xmlns:kvg CDATA #FIXED "http://kanjivg.tagaini.net"
kvg:element CDATA #IMPLIED
kvg:variant CDATA #IMPLIED
kvg:partial CDATA #IMPLIED
kvg:original CDATA #IMPLIED
kvg:part CDATA #IMPLIED
kvg:number CDATA #IMPLIED
kvg:tradForm CDATA #IMPLIED
kvg:radicalForm CDATA #IMPLIED
kvg:position CDATA #IMPLIED
kvg:radical CDATA #IMPLIED
kvg:phon CDATA #IMPLIED >
<!ATTLIST path
xmlns:kvg CDATA #FIXED "http://kanjivg.tagaini.net"
kvg:type CDATA #IMPLIED >
]>
<svg xmlns="http://www.w3.org/2000/svg" width="327" height = "327" viewBox="0 0 327 327">
<g id="kvg:StrokePaths_08b8a-Kaisho" style="fill:none;stroke:#000000;stroke-width:3;stroke-linecap:round;stroke-linejoin:round;" transform="scale(3.0,3.0)">
<g id="kvg:08b8a-Kaisho" kvg:element="變">
	<g id="kvg:08b8a-Kaisho-g1" kvg:element="䜌" kvg:position="top">
		<g id="kvg:08b8a-Kaisho-g2" kvg:element="糸" kvg:variant="true">
			<path style="stroke: #bf0909;" id="kvg:08b8a-Kaisho-s1" kvg:type="㇜" d="M49.83,9.5c2.32,1.12,5.99,4.61,6.57,6.36"/>
			<path style="stroke: #bf3809;" id="kvg:08b8a-Kaisho-s2" kvg:type="㇜" d="M42.06,21.94c0.53,0.17,2.53,0.2,3.06,0.17c6.51-0.32,13.17-1.99,17.9-2.15c0.88-0.03,2.2,0.09,2.64,0.17"/>
			<path style="stroke: #bf6809;" id="kvg:08b8a-Kaisho-s3" kvg:type="㇔" d="M46.95,29.46c0.32,0.09,2.27,0.1,2.59,0.09c3.31-0.1,5.68-0.99,8.95-0.99c0.53,0,2.75,0.04,3.01,0.09"/>
			<path style="stroke: #bf9709;" id="kvg:08b8a-Kaisho-s4" kvg:type="㇔" d="M46.78,36.45c0.28,0.09,2.02,0.1,2.31,0.09c2.96-0.1,6.78-1.58,9.7-1.57c0.47,0,2.45,0.04,2.69,0.08"/>
			<path style="stroke: #b7bf09;" id="kvg:08b8a-Kaisho-s5" kvg:type="㇔" d="M46.38,44.05c0.3,0.2,0.65,0.36,0.75,0.62c0.86,2.3,0.92,7.53,1.79,10.9"/>
			<path style="stroke: #87bf09;" id="kvg:08b8a-Kaisho-s6" kvg:type="㇔" d="M48.54,45.16c4.71-0.43,8.82-1.12,13.17-1.56c1.09-0.11,1.75,0.5,1.59,0.99c-0.65,2.04-1.21,4.4-2.37,7.81"/>
		</g>
		<g id="kvg:08b8a-Kaisho-g3" kvg:element="言" kvg:radical="tradit">
			<path style="stroke: #58bf09;" id="kvg:08b8a-Kaisho-s7" kvg:type="㇔" d="M49.61,53.41c3.51-0.26,8.09-0.36,12.91-0.76"/>
			<path style="stroke: #29bf09;" id="kvg:08b8a-Kaisho-s8" kvg:type="㇐" d="M26.96,10.05c0.28,0.95,0.34,1.68-0.14,2.71c-2.43,5.16-5.32,8.89-8.27,13.2c-0.4,0.58-0.55,2.21,0,2.39c2.9,0.96,6.96,2.55,9.45,4.3"/>
			<path style="stroke: #09bf19;" id="kvg:08b8a-Kaisho-s9" kvg:type="㇐" d="M37.3,18.65c0.25,0.43,0.33,1.85,0,2.31c-4.91,6.78-12.24,16.21-18.99,22.39c-1.55,1.42,0.38,2.23,1.39,1.94c4.22-1.21,12.99-3.36,18.41-4.51"/>
			<path style="stroke: #09bf48;" id="kvg:08b8a-Kaisho-s10" kvg:type="㇐" d="M34.61,35.21c2.19,1.73,5.67,7.13,6.22,9.83"/>
			<g id="kvg:08b8a-Kaisho-g4" kvg:element="口">
				<path style="stroke: #09bf78;" id="kvg:08b8a-Kaisho-s11" kvg:type="㇑" d="M14.18,54.08c3.33,2.17,5.89,7.2,6.66,9.17"/>
				<path style="stroke: #09bfa7;" id="kvg:08b8a-Kaisho-s12" kvg:type="㇕b" d="M23.73,51.28c3.77,1.88,6.67,6.24,7.55,7.94"/>
				<path style="stroke: #09a7bf;" id="kvg:08b8a-Kaisho-s13" kvg:type="㇐b" d="M33.27,47.96c3.66,1.5,6.47,5,7.33,6.37"/>
			</g>
		</g>
		<g id="kvg:08b8a-Kaisho-g5" kvg:element="糸" kvg:variant="true">
			<path style="stroke: #0978bf;" id="kvg:08b8a-Kaisho-s14" kvg:type="㇜" d="M79.77,10.05c0.24,0.85,0.3,1.49-0.12,2.4c-2.16,4.57-4.72,7.88-7.33,11.71c-0.35,0.51-0.49,1.96,0,2.12c2.57,0.85,6.17,2.26,8.38,3.81"/>
			<path style="stroke: #0948bf;" id="kvg:08b8a-Kaisho-s15" kvg:type="㇜" d="M88.94,17.68c0.23,0.38,0.3,1.64,0,2.05C84.58,25.73,78.08,34.1,72.1,39.58c-1.37,1.26,0.34,1.97,1.23,1.72c3.74-1.07,11.51-2.98,16.32-4"/>
			<path style="stroke: #0919bf;" id="kvg:08b8a-Kaisho-s16" kvg:type="㇔" d="M86.55,32.35c1.95,1.54,5.03,6.32,5.51,8.71"/>
			<path style="stroke: #2909bf;" id="kvg:08b8a-Kaisho-s17" kvg:type="㇔" d="M68.44,49.09c3.33,2.02,5.88,6.72,6.66,8.56"/>
			<path style="stroke: #5809bf;" id="kvg:08b8a-Kaisho-s18" kvg:type="㇔" d="M76.9,46.6c3.35,1.67,5.92,5.53,6.69,7.04"/>
			<path style="stroke: #8709bf;" id="kvg:08b8a-Kaisho-s19" kvg:type="㇔" d="M85.37,43.66c3.25,1.33,5.74,4.44,6.5,5.65"/>
		</g>
	</g>
	<g id="kvg:08b8a-Kaisho-g6" kvg:element="攵" kvg:variant="true" kvg:original="攴" kvg:position="bottom" kvg:radical="nelson">
		<g id="kvg:08b8a-Kaisho-g7" kvg:element="𠂉" kvg:position="top">
			<path style="stroke: #b709bf;" id="kvg:08b8a-Kaisho-s20" kvg:type="㇒" d="M43,59.14c0.06,0.51,0.35,1.34-0.11,2.04c-2.92,4.47-10.82,14.6-20.9,20.79"/>
			<path style="stroke: #bf0997;" id="kvg:08b8a-Kaisho-s21" kvg:type="㇐" d="M39.16,67.95c0.06-0.21,3.06,0.61,4.14,0.55c11.24-0.63,25.44-3,35-3.88c1.93-0.18,3.11-0.03,3.61,0.1"/>
		</g>
		<g id="kvg:08b8a-Kaisho-g8" kvg:element="乂" kvg:position="bottom">
			<g id="kvg:08b8a-Kaisho-g9" kvg:element="丿">
				<path style="stroke: #bf0968;" id="kvg:08b8a-Kaisho-s22" kvg:type="㇒" d="M66.73,68.61c0.76,0.78,0.42,2.5-0.62,3.75c-9.87,11.89-22.87,20.39-46.49,27.89"/>
			</g>
			<path style="stroke: #bf0938;" id="kvg:08b8a-Kaisho-s23" kvg:type="㇏" d="M37.87,72.49C47.75,78.25,68,89.25,83.82,96.11c2.63,1.14,4.46,1.05,6.68,1.15"/>
		</g>
	</g>
</g>
</g>
<g id="kvg:StrokeNumbers_08b8a-Kaisho" style="font-size:8;fill:#808080" transform="scale(3.0,3.0)">
	<text style="fill: #bf0909;" transform="matrix(1 0 0 1 42.50 9.50)">1</text>
	<text style="fill: #bf3809;" transform="matrix(1 0 0 1 40.50 19.50)">2</text>
	<text style="fill: #bf6809;" transform="matrix(1 0 0 1 43.50 29.50)">3</text>
	<text style="fill: #bf9709;" transform="matrix(1 0 0 1 43.50 35.50)">4</text>
	<text style="fill: #b7bf09;" transform="matrix(1 0 0 1 41.50 47.50)">5</text>
	<text style="fill: #87bf09;" transform="matrix(1 0 0 1 48.50 43.50)">6</text>
	<text style="fill: #58bf09;" transform="matrix(1 0 0 1 50.50 51.50)">7</text>
	<text style="fill: #29bf09;" transform="matrix(1 0 0 1 21.50 10.50)">8</text>
	<text style="fill: #09bf19;" transform="matrix(1 0 0 1 31.50 19.50)">9</text>
	<text style="fill: #09bf48;" transform="matrix(1 0 0 1 33.50 33.50)">10</text>
	<text style="fill: #09bf78;" transform="matrix(1 0 0 1 5.50 58.50)">11</text>
	<text style="fill: #09bfa7;" transform="matrix(1 0 0 1 16.50 53.50)">12</text>
	<text style="fill: #09a7bf;" transform="matrix(1 0 0 1 26.50 50.50)">13</text>
	<text style="fill: #0978bf;" transform="matrix(1 0 0 1 68.50 10.50)">14</text>
	<text style="fill: #0948bf;" transform="matrix(1 0 0 1 84.50 15.50)">15</text>
	<text style="fill: #0919bf;" transform="matrix(1 0 0 1 87.50 32.50)">16</text>
	<text style="fill: #2909bf;" transform="matrix(1 0 0 1 62.50 57.50)">17</text>
	<text style="fill: #5809bf;" transform="matrix(1 0 0 1 69.50 48.50)">18</text>
	<text style="fill: #8709bf;" transform="matrix(1 0 0 1 77.50 47.50)">19</text>
	<text style="fill: #b709bf;" transform="matrix(1 0 0 1 33.50 61.50)">20</text>
	<text style="fill: #bf0997;" transform="matrix(1 0 0 1 46.50 64.50)">21</text>
</g>
</svg>
