<?xml version="1.0" encoding="UTF-8"?>
<!--
This file has been modified from the original version by the kanji_colorize.py
script (available at http://github.com/cayennes/kanji-colorize) with these
settings:
    mode: spectrum
    saturation: 0.95
    value: 0.75
    image_size: 327
It remains under a Creative Commons-Attribution-Share Alike 3.0 License.

The original SVG has the following copyright:

Copyright (C) 2009/2010/2011 Ulrich Apel.
This work is distributed under the conditions of the Creative Commons
Attribution-Share Alike 3.0 Licence. This means you are free:
* to Share - to copy, distribute and transmit the work
* to Remix - to adapt the work

Under the following conditions:
* Attribution. You must attribute the work by stating your use of KanjiVG in
  your own copyright header and linking to KanjiVG's website
  (http://kanjivg.tagaini.net)
* Share Alike. If you alter, transform, or build upon this work, you may
  distribute the resulting work only under the same or similar license to this
  one.

See http://creativecommons.org/licenses/by-sa/3.0/ for more details.
-->
<!DOCTYPE svg PUBLIC "-//W3C//DTD SVG 1.0//EN" "http://www.w3.org/TR/2001/REC-SVG-20010904/DTD/svg10.dtd" [
<!ATTLIST g
xmlns:kvg CDATA #FIXED "http://kanjivg.tagaini.net"
kvg:element CDATA #IMPLIED
kvg:variant CDATA #IMPLIED
kvg:partial CDATA #IMPLIED
kvg:original CDATA #IMPLIED
kvg:part CDATA #IMPLIED
kvg:number CDATA #IMPLIED
kvg:tradForm CDATA #IMPLIED
kvg:radicalForm CDATA #IMPLIED
kvg:position CDATA #IMPLIED
kvg:radical CDATA #IMPLIED
kvg:phon CDATA #IMPLIED >
<!ATTLIST path
xmlns:kvg CDATA #FIXED "http://kanjivg.tagaini.net"
kvg:type CDATA #IMPLIED >
]>
<svg xmlns="http://www.w3.org/2000/svg" width="327" height = "327" viewBox="0 0 327 327">
<g id="kvg:StrokePaths_26951-HzFst" style="fill:none;stroke:#000000;stroke-width:3;stroke-linecap:round;stroke-linejoin:round;" transform="scale(3.0,3.0)">
<g id="kvg:26951-HzFst" kvg:element="𦥑" kvg:variant="true" kvg:original="臼" kvg:radical="tradit">
	<path style="stroke: #bf0909;" id="kvg:26951-HzFst-s1" kvg:type="㇒" d="M44.62,35.78c0.04,0.25-0.23,1.2-0.5,1.47c-3.55,3.5-6.86,6.14-14.96,8.92"/>
	<path style="stroke: #bfa509;" id="kvg:26951-HzFst-s2" kvg:type="㇑" d="M28.61,44.68c0.7,0.72,0.99,2.34,1.16,3.82c0.63,5.42,2.22,15.98,2.86,23.31"/>
	<path style="stroke: #3dbf09;" id="kvg:26951-HzFst-s3" kvg:type="㇐" d="M32.73,71.77c3.47-0.33,11.38-2.13,12.2-2.13s1.98,0,2.64,0"/>
	<path style="stroke: #09bf71;" id="kvg:26951-HzFst-s4" kvg:type="㇐" d="M30.98,56.02c3.47-0.33,11.38-2.13,12.2-2.13c0.83,0,1.98,0,2.64,0"/>
	<path style="stroke: #0971bf;" id="kvg:26951-HzFst-s5" kvg:type="㇕" d="M60.73,38.68c0.83,0.16,1.49,0.49,2.64,0.49s12.54-1.98,13.86-2.14s2.41,0.82,2.31,1.81c-0.99,9.56-3.72,28.57-3.88,29.23"/>
	<path style="stroke: #3d09bf;" id="kvg:26951-HzFst-s6" kvg:type="㇐" d="M60.64,52.74c0.83,0.16,1.49,0.49,2.64,0.49s13.04-0.83,14.36-1"/>
	<path style="stroke: #bf09a5;" id="kvg:26951-HzFst-s7" kvg:type="㇐" d="M60.14,68.24c0.83,0.16,1.49,0.49,2.64,0.49s13.04-0.84,14.36-1"/>
</g>
</g>
<g id="kvg:StrokeNumbers_26951-HzFst" style="font-size:8;fill:#808080" transform="scale(3.0,3.0)">
	<text style="fill: #bf0909;" transform="matrix(1 0 0 1 32.00 33.38)">1</text>
	<text style="fill: #bfa509;" transform="matrix(1 0 0 1 22.00 53.30)">2</text>
	<text style="fill: #3dbf09;" transform="matrix(1 0 0 1 40.00 65.15)">3</text>
	<text style="fill: #09bf71;" transform="matrix(1 0 0 1 38.00 51.23)">4</text>
	<text style="fill: #0971bf;" transform="matrix(1 0 0 1 63.00 34.08)">5</text>
	<text style="fill: #3d09bf;" transform="matrix(1 0 0 1 63.00 49.00)">6</text>
	<text style="fill: #bf09a5;" transform="matrix(1 0 0 1 62.00 63.93)">7</text>
</g>
</svg>
